<?xml version="1.0" encoding="UTF-8" standalone="no"?>
<!-- Created with Inkscape (http://www.inkscape.org/) -->

<svg
   xmlns:dc="http://purl.org/dc/elements/1.1/"
   xmlns:cc="http://creativecommons.org/ns#"
   xmlns:rdf="http://www.w3.org/1999/02/22-rdf-syntax-ns#"
   xmlns:svg="http://www.w3.org/2000/svg"
   xmlns="http://www.w3.org/2000/svg"
   xmlns:sodipodi="http://sodipodi.sourceforge.net/DTD/sodipodi-0.dtd"
   xmlns:inkscape="http://www.inkscape.org/namespaces/inkscape"
   version="1.1"
   id="svg1460"
   xml:space="preserve"
   width="800"
   height="800"
   viewBox="0 0 800 800"
   sodipodi:docname="analog-clock-art-publicdomainvectors.org.svg"
   inkscape:version="0.92.4 (5da689c313, 2019-01-14)"><metadata
     id="metadata1466"><rdf:RDF><cc:Work
         rdf:about=""><dc:format>image/svg+xml</dc:format><dc:type
           rdf:resource="http://purl.org/dc/dcmitype/StillImage" /><dc:title></dc:title></cc:Work></rdf:RDF></metadata><defs
     id="defs1464"><clipPath
       clipPathUnits="userSpaceOnUse"
       id="clipPath1476"><path
         d="M 0,600 H 600 V 0 H 0 Z"
         id="path1474"
         inkscape:connector-curvature="0" /></clipPath></defs><sodipodi:namedview
     pagecolor="#ffffff"
     bordercolor="#666666"
     borderopacity="1"
     objecttolerance="10"
     gridtolerance="10"
     guidetolerance="10"
     inkscape:pageopacity="0"
     inkscape:pageshadow="2"
     inkscape:window-width="1920"
     inkscape:window-height="1018"
     id="namedview1462"
     showgrid="false"
     inkscape:zoom="1.06125"
     inkscape:cx="400"
     inkscape:cy="513.0742"
     inkscape:window-x="-8"
     inkscape:window-y="-8"
     inkscape:window-maximized="1"
     inkscape:current-layer="g1468" /><g
     id="g1468"
     inkscape:groupmode="layer"
     inkscape:label="analog-clock-art-publicdomainvectors.org"
     transform="matrix(1.3333333,0,0,-1.3333333,0,800)"><g
       id="g1470"><g
         id="g1472"
         clip-path="url(#clipPath1476)"><path
           d="m 258.733,349.052 c 0.244,-1.249 -0.565,-2.462 -1.813,-2.716 -0.164,-0.035 -0.314,-0.046 -0.463,-0.046 -1.076,0 -2.047,0.762 -2.267,1.861 -0.243,1.248 0.566,2.473 1.816,2.716 1.26,0.254 2.473,-0.555 2.727,-1.815 m 77.584,40.214 c -0.578,0 -1.167,0.22 -1.618,0.671 -0.913,0.901 -0.913,2.358 -0.011,3.271 0.889,0.901 2.359,0.901 3.259,0.011 0.913,-0.901 0.913,-2.369 0.012,-3.271 -0.451,-0.462 -1.04,-0.682 -1.642,-0.682 m -24.724,12.923 c -1.259,0.243 -2.081,1.456 -1.839,2.717 0.244,1.248 1.457,2.069 2.718,1.826 1.248,-0.243 2.068,-1.456 1.826,-2.716 -0.221,-1.099 -1.179,-1.862 -2.267,-1.862 -0.149,0 -0.3,0.012 -0.438,0.035 m 7.386,-88.923 c -0.497,1.189 0.07,2.542 1.237,3.027 1.18,0.487 2.543,-0.068 3.028,-1.247 0.485,-1.18 -0.069,-2.532 -1.248,-3.018 -0.289,-0.127 -0.59,-0.184 -0.89,-0.184 -0.902,0 -1.768,0.543 -2.127,1.422 m -62.026,63.586 c 0.485,1.179 1.838,1.745 3.016,1.26 1.18,-0.486 1.746,-1.838 1.261,-3.017 -0.371,-0.89 -1.226,-1.434 -2.138,-1.434 -0.289,0 -0.59,0.058 -0.879,0.174 -1.179,0.486 -1.746,1.838 -1.26,3.028 z m 88.809,1.537 c 1.178,0.486 2.531,-0.069 3.028,-1.237 0.496,-1.179 -0.058,-2.542 -1.237,-3.028 -0.289,-0.128 -0.589,-0.185 -0.891,-0.185 -0.9,0 -1.767,0.531 -2.137,1.422 -0.486,1.179 0.07,2.531 1.237,3.028 m -25.72,21.269 c -1.179,0.485 -1.744,1.837 -1.26,3.017 0.487,1.19 1.838,1.745 3.018,1.259 1.179,-0.485 1.744,-1.837 1.26,-3.016 -0.36,-0.89 -1.226,-1.434 -2.138,-1.434 -0.289,0 -0.591,0.058 -0.88,0.174 m 10.369,-0.289 h -0.012 c 1.064,-0.706 1.352,-2.139 0.648,-3.202 -0.44,-0.671 -1.18,-1.029 -1.919,-1.029 -0.44,0 -0.891,0.116 -1.283,0.382 -1.064,0.705 -1.353,2.138 -0.648,3.201 0.705,1.064 2.139,1.353 3.214,0.648 m 18.518,-29.73 c 1.248,0.254 2.472,-0.555 2.727,-1.803 0.254,-1.249 -0.554,-2.474 -1.814,-2.728 -0.151,-0.023 -0.301,-0.047 -0.463,-0.047 -1.074,0 -2.033,0.763 -2.254,1.861 -0.254,1.249 0.556,2.474 1.804,2.717 m -7.977,16.703 c 1.052,0.716 2.497,0.427 3.202,-0.624 0.717,-1.064 0.441,-2.498 -0.612,-3.214 -0.404,-0.266 -0.855,-0.393 -1.295,-0.393 -0.739,0 -1.468,0.358 -1.919,1.017 -0.716,1.064 -0.438,2.497 0.624,3.214 m -69.84,-60.327 h -0.01 c 0.913,-0.901 0.913,-2.359 0.01,-3.272 -0.45,-0.45 -1.04,-0.681 -1.641,-0.681 -0.588,0 -1.178,0.231 -1.629,0.681 -0.902,0.903 -0.902,2.359 0,3.272 0.901,0.901 2.357,0.901 3.27,0 M 270.963,393 c 0.914,-0.89 0.914,-2.359 0.012,-3.272 -0.451,-0.45 -1.04,-0.67 -1.641,-0.67 -0.591,0 -1.181,0.22 -1.631,0.67 -0.902,0.902 -0.902,2.358 -0.012,3.272 0.903,0.902 2.371,0.902 3.272,0 m 6.981,-72.58 c 1.064,-0.717 1.353,-2.149 0.636,-3.214 -0.438,-0.658 -1.18,-1.028 -1.918,-1.028 -0.439,0 -0.891,0.128 -1.283,0.394 -1.064,0.704 -1.354,2.138 -0.637,3.201 0.705,1.064 2.139,1.353 3.202,0.647 m 13.339,83.526 c -0.254,1.249 0.555,2.474 1.816,2.728 1.247,0.243 2.462,-0.566 2.716,-1.814 0.254,-1.249 -0.567,-2.475 -1.815,-2.717 -0.15,-0.035 -0.301,-0.046 -0.451,-0.046 -1.086,0 -2.045,0.751 -2.266,1.849 m -12.865,-5.374 c 0.705,-1.064 0.428,-2.498 -0.636,-3.214 -0.392,-0.266 -0.843,-0.393 -1.282,-0.393 -0.74,0 -1.48,0.358 -1.92,1.017 -0.717,1.063 -0.438,2.497 0.625,3.213 1.064,0.717 2.496,0.428 3.213,-0.623 m 56.408,-75.759 c -0.9,0.902 -0.9,2.37 0,3.271 0.903,0.901 2.369,0.901 3.272,0 0.901,-0.901 0.901,-2.369 0,-3.271 -0.451,-0.452 -1.04,-0.682 -1.63,-0.682 -0.602,0 -1.191,0.23 -1.642,0.682 m -72.648,59.437 c -1.064,0.705 -1.353,2.138 -0.648,3.202 0.718,1.063 2.15,1.352 3.214,0.647 1.064,-0.705 1.352,-2.138 0.635,-3.202 -0.439,-0.67 -1.179,-1.04 -1.918,-1.04 -0.44,0 -0.891,0.127 -1.283,0.393 m 65.192,-64.985 c -0.716,1.051 -0.427,2.496 0.637,3.202 1.052,0.717 2.496,0.428 3.201,-0.636 0.717,-1.053 0.428,-2.497 -0.636,-3.203 -0.392,-0.264 -0.832,-0.393 -1.283,-0.393 -0.739,0 -1.468,0.36 -1.919,1.03 m -40.571,85.306 c 0.496,-1.168 -0.059,-2.52 -1.237,-3.018 -0.289,-0.126 -0.589,-0.184 -0.89,-0.184 -0.901,0 -1.769,0.532 -2.139,1.422 -0.486,1.178 0.07,2.531 1.248,3.028 1.18,0.485 2.532,-0.069 3.018,-1.248 m 60.361,-53.426 c 0.242,1.26 1.456,2.069 2.716,1.826 1.249,-0.254 2.069,-1.468 1.815,-2.716 -0.219,-1.11 -1.179,-1.861 -2.265,-1.861 -0.151,0 -0.301,0.011 -0.451,0.034 -1.248,0.255 -2.058,1.468 -1.815,2.717 m 0.462,-7.202 c 1.18,-0.485 1.734,-1.838 1.248,-3.017 -0.369,-0.89 -1.224,-1.421 -2.138,-1.421 -0.289,0 -0.588,0.058 -0.878,0.173 -1.179,0.486 -1.746,1.839 -1.249,3.016 0.486,1.18 1.838,1.747 3.017,1.249 m -88.924,24.702 c -0.219,-1.11 -1.19,-1.872 -2.276,-1.872 -0.14,0 -0.289,0.011 -0.44,0.046 -1.259,0.242 -2.068,1.456 -1.827,2.704 0.243,1.261 1.457,2.07 2.718,1.827 1.248,-0.243 2.068,-1.456 1.825,-2.705 m 44.238,-12.461 c -2.076,0 -3.758,1.682 -3.758,3.757 0,2.075 1.682,3.757 3.758,3.757 2.074,0 3.755,-1.682 3.755,-3.757 0,-2.075 -1.681,-3.757 -3.755,-3.757 m 46.19,5.924 c -3.465,0.224 -7.081,0.405 -10.707,0.607 -2.152,0.119 -4.306,0.29 -6.426,0.475 -2.119,0.193 -4.204,0.333 -6.222,0.363 -4.038,0.019 -7.805,-0.382 -11.036,-0.828 -1.126,-0.157 -2.158,-0.334 -3.142,-0.517 -0.618,2.366 -2.173,4.35 -4.253,5.528 0.078,0.242 0.164,0.468 0.235,0.718 0.388,1.277 0.722,2.66 0.972,4.124 0.276,1.463 0.435,3.006 0.41,4.602 -0.025,1.596 -0.291,3.246 -0.6,4.922 -0.32,1.676 -0.597,3.378 -0.797,5.081 -0.197,1.703 -0.39,3.405 -0.582,5.081 -0.175,1.676 -0.425,3.326 -0.646,4.922 -0.23,1.596 -0.424,3.139 -0.66,4.603 -0.23,1.463 -0.445,2.846 -0.646,4.123 -0.032,0.199 -0.063,0.389 -0.093,0.581 0.102,0.264 0.163,0.55 0.163,0.852 0,0.565 -0.213,1.076 -0.555,1.477 -0.593,3.447 -1.027,5.604 -1.027,5.604 h -1.157 c 0,0 -0.406,-2.014 -0.968,-5.259 -0.553,-0.425 -0.916,-1.09 -0.916,-1.845 0,-0.474 0.144,-0.914 0.392,-1.279 -0.007,-0.044 -0.013,-0.086 -0.021,-0.131 -0.199,-1.277 -0.416,-2.66 -0.645,-4.123 -0.236,-1.464 -0.429,-3.007 -0.66,-4.603 -0.221,-1.596 -0.472,-3.246 -0.645,-4.922 -0.193,-1.676 -0.388,-3.378 -0.582,-5.081 -0.201,-1.703 -0.478,-3.405 -0.798,-5.081 -0.309,-1.676 -0.575,-3.326 -0.6,-4.922 -0.025,-1.596 0.133,-3.139 0.41,-4.602 0.249,-1.464 0.583,-2.847 0.971,-4.124 0.072,-0.25 0.157,-0.476 0.235,-0.718 -2.717,-1.538 -4.552,-4.45 -4.552,-7.795 0,-4.948 4.009,-8.958 8.958,-8.958 4.163,0 7.652,2.843 8.657,6.691 0.984,-0.183 2.016,-0.36 3.142,-0.518 3.231,-0.445 6.998,-0.846 11.036,-0.828 2.018,0.031 4.103,0.171 6.222,0.364 2.12,0.185 4.274,0.356 6.426,0.475 3.746,0.209 7.48,0.394 11.049,0.63 0.265,-0.106 0.554,-0.168 0.859,-0.168 0.406,0 0.782,0.114 1.114,0.298 3.894,0.247 7.534,0.536 10.662,0.779 6.459,0.474 10.764,0.888 10.764,0.888 v 0.693 c 0,0 -4.305,0.415 -10.764,0.889 -3.038,0.236 -6.561,0.514 -10.326,0.756 -0.4,0.323 -0.905,0.523 -1.462,0.517 -0.436,0 -0.84,-0.128 -1.189,-0.341 m -93.583,0.041 c 1.271,0.012 2.312,-1.029 2.312,-2.3 0,-1.283 -1.029,-2.312 -2.312,-2.324 -1.272,0 -2.312,1.041 -2.312,2.312 0,1.283 1.029,2.312 2.312,2.312 m 8.033,-30.92 c -0.751,0 -1.478,0.357 -1.93,1.028 -0.705,1.052 -0.427,2.497 0.635,3.202 1.065,0.717 2.497,0.428 3.202,-0.624 0.717,-1.064 0.441,-2.497 -0.624,-3.214 -0.392,-0.266 -0.843,-0.392 -1.283,-0.392 M 296.012,311 c -0.221,-1.109 -1.18,-1.873 -2.266,-1.873 -0.15,0 -0.301,0.012 -0.451,0.047 -1.248,0.242 -2.069,1.456 -1.815,2.716 0.243,1.248 1.457,2.069 2.705,1.815 1.26,-0.243 2.069,-1.458 1.827,-2.705 m 6.98,-2.764 c -1.281,0 -2.322,1.041 -2.322,2.313 0,1.271 1.041,2.311 2.311,2.311 1.284,0 2.312,-1.028 2.312,-2.311 0,-1.272 -1.028,-2.313 -2.301,-2.313 m -42.929,29.35 c -0.29,-0.116 -0.589,-0.174 -0.891,-0.174 -0.901,0 -1.768,0.531 -2.138,1.421 -0.485,1.18 0.07,2.532 1.248,3.018 1.179,0.497 2.532,-0.058 3.017,-1.237 0.498,-1.179 -0.058,-2.531 -1.236,-3.028 m 25.671,-21.327 c 1.18,-0.486 1.747,-1.837 1.262,-3.017 -0.371,-0.889 -1.238,-1.433 -2.139,-1.433 -0.3,0 -0.601,0.058 -0.89,0.173 -1.18,0.497 -1.734,1.849 -1.248,3.017 0.484,1.19 1.838,1.746 3.015,1.26 m 58.548,14.079 c -0.451,-0.659 -1.178,-1.028 -1.93,-1.028 -0.44,0 -0.891,0.126 -1.284,0.392 -1.064,0.717 -1.34,2.151 -0.635,3.214 0.705,1.063 2.149,1.34 3.202,0.636 1.063,-0.717 1.351,-2.151 0.647,-3.214 m -34.331,-19.326 c -0.242,1.248 0.568,2.472 1.826,2.716 1.249,0.253 2.462,-0.567 2.717,-1.815 0.243,-1.248 -0.566,-2.475 -1.814,-2.716 -0.162,-0.036 -0.313,-0.047 -0.451,-0.047 -1.087,0 -2.057,0.763 -2.278,1.862 m -7.882,107.775 -4.261,4.951 v 37.669 l 0.885,-0.426 V 424 l 5.278,-6.098 h -16.785 l -0.721,0.885 z m -20.916,38.063 c 0,1.093 0.513,1.66 1.54,1.705 0.919,0.043 1.378,-0.372 1.378,-1.246 0,-0.153 -0.022,-0.307 -0.065,-0.459 -0.023,-0.11 -0.032,-0.186 -0.032,-0.23 0.019,-0.349 0.315,-0.524 0.884,-0.524 1.443,0 2.863,0.558 4.261,1.672 1.4,1.115 2.447,2.524 3.149,4.229 h 3.9 V 424 l 4,-3.409 h -14.129 l 4.162,3.409 v 28.85 c -1.266,-0.655 -2.546,-0.984 -3.835,-0.984 -2.012,0 -3.563,0.82 -4.655,2.46 h 0.263 c 1.331,-1.094 2.774,-1.64 4.327,-1.64 1.464,0 2.764,0.382 3.9,1.148 v 2.032 c -1.486,-1.093 -3.223,-1.639 -5.213,-1.639 -1.092,0 -2.005,0.251 -2.736,0.754 -0.732,0.503 -1.099,1.126 -1.099,1.869 m -2.964,-44.473 -4.261,4.951 v 37.669 l 0.885,-0.426 V 417.59 l 5.277,-6.098 h -16.785 l -0.721,0.885 z m -15.704,33.08 c -2.01,0 -3.561,0.819 -4.655,2.459 h 0.262 c 1.334,-1.093 2.775,-1.64 4.328,-1.64 1.463,0 2.766,0.382 3.901,1.148 v 2.033 c -1.487,-1.093 -3.223,-1.639 -5.213,-1.639 -1.092,0 -2.004,0.25 -2.737,0.754 -0.732,0.502 -1.098,1.125 -1.098,1.868 0,1.093 0.514,1.66 1.541,1.705 0.917,0.043 1.377,-0.372 1.377,-1.246 0,-0.153 -0.021,-0.307 -0.066,-0.459 -0.021,-0.11 -0.033,-0.186 -0.033,-0.229 0.021,-0.35 0.317,-0.525 0.887,-0.525 1.441,0 2.863,0.557 4.26,1.672 1.398,1.115 2.449,2.524 3.148,4.229 h 3.902 V 417.59 l 4,-3.41 h -14.131 l 4.163,3.41 v 28.85 c -1.266,-0.656 -2.546,-0.983 -3.836,-0.983 m -23.893,-37.589 c 2.865,0 5.127,-1.29 6.787,-3.868 l -0.492,-0.295 c -1.66,2.163 -3.815,3.245 -6.459,3.245 -2.688,0 -4.637,-1.339 -5.851,-4.016 -1.213,-2.677 -1.82,-6.988 -1.82,-12.933 0,-5.202 0.536,-9.191 1.607,-11.966 1.071,-2.776 2.774,-4.579 5.115,-5.409 v -0.328 c -1.619,0.262 -3.138,1.245 -4.558,2.95 -2.012,2.47 -3.016,7.573 -3.016,15.31 0,6.098 0.682,10.508 2.05,13.229 1.364,2.721 3.577,4.081 6.637,4.081 m -5.294,-40.504 c -1.651,0.666 -3.438,1.84 -5.36,3.524 l 0.295,0.229 c 3.19,-2.622 6.676,-3.934 10.458,-3.934 5.53,0 9.846,2 12.951,6 3.102,4 4.655,9.561 4.655,16.687 0,5.224 -0.782,9.54 -2.345,12.95 -1.562,3.409 -3.972,6.076 -7.228,7.999 v 0.295 c 3.321,-1.464 5.905,-4.027 7.754,-7.687 1.845,-3.662 2.77,-8.05 2.77,-13.164 0,-8.568 -2,-14.884 -6,-18.949 -3.236,-3.3 -7.279,-4.95 -12.131,-4.95 -2.23,0 -4.169,0.333 -5.819,1 m -15.473,5.097 5.279,-6.097 h -16.787 l -0.721,0.884 h 15.606 l -4.262,4.951 v 37.669 l 0.885,-0.426 z m 8.533,-9.519 v 0.36 c 6.229,-3.388 9.344,-9.605 9.344,-18.653 0,-9.247 -3.049,-16.983 -9.147,-23.211 -2.645,-2.733 -5.672,-4.875 -9.08,-6.426 -3.411,-1.553 -6.777,-2.327 -10.098,-2.327 l -0.853,0.031 -0.229,0.788 c 5.246,0 10.129,1.497 14.654,4.49 4.348,2.843 7.748,6.606 10.197,11.295 2.446,4.687 3.67,9.775 3.67,15.26 0,8.808 -2.818,14.939 -8.458,18.393 m -15.047,-11.967 c 0,-2.557 0.486,-4.72 1.459,-6.491 0.971,-1.77 2.299,-2.907 3.983,-3.41 v -0.228 c -1.945,0.327 -3.498,1.414 -4.656,3.262 -1.158,1.845 -1.737,4.157 -1.737,6.933 0,3.191 0.611,5.666 1.835,7.426 1.225,1.759 2.951,2.639 5.181,2.639 1.442,0 2.791,-0.427 4.048,-1.279 1.258,-0.852 2.213,-1.989 2.869,-3.409 -2.098,2.512 -4.381,3.77 -6.852,3.77 -4.087,0 -6.13,-3.071 -6.13,-9.213 m 5.408,14.295 c 4.722,0 8.574,-1.918 11.557,-5.755 2.983,-3.835 4.475,-8.791 4.475,-14.866 0,-5.334 -1.152,-10.235 -3.459,-14.705 -2.306,-4.47 -5.522,-8.038 -9.655,-10.704 -4.175,-2.71 -8.555,-4.065 -13.146,-4.065 -1.333,0 -2,0.349 -2,1.05 0,0.588 0.48,0.938 1.444,1.049 5.506,0.612 9.961,2.743 13.358,6.391 3.398,3.651 5.624,8.677 6.672,15.081 -2.689,-3.081 -6.24,-4.621 -10.654,-4.621 -1.881,0 -3.684,0.405 -5.411,1.212 -1.726,0.809 -3.026,1.87 -3.9,3.182 l 0.032,0.227 c 1.748,-2.49 4.799,-3.736 9.147,-3.736 4.852,0 8.577,1.879 11.179,5.637 0.109,1.727 0.164,3.366 0.164,4.919 0,5.464 -0.623,9.43 -1.869,11.901 -0.831,1.639 -1.987,2.951 -3.475,3.934 -1.486,0.984 -3.049,1.475 -4.688,1.475 -2.534,0 -4.54,-1.032 -6.015,-3.098 -1.475,-2.065 -2.214,-4.857 -2.214,-8.376 0,-3.41 0.777,-6.104 2.328,-8.081 1.553,-1.978 3.661,-2.967 6.328,-2.967 3.935,0 6.294,1.879 7.082,5.638 l 0.261,1.344 c 0.111,0.503 0.383,0.754 0.821,0.754 0.698,0 1.048,-0.601 1.048,-1.803 0,-2.667 -1.077,-4.913 -3.229,-6.737 -2.152,-1.824 -4.792,-2.738 -7.917,-2.738 -3.716,0 -6.771,1.242 -9.164,3.72 -2.394,2.482 -3.59,5.636 -3.59,9.46 0,4.306 1.395,7.929 4.18,10.868 2.786,2.939 6.224,4.41 10.31,4.41 m 18.531,-51.695 c 0,-1.465 0.523,-2.634 1.572,-3.508 l -0.197,-0.229 c -1.463,1.225 -2.196,2.611 -2.196,4.164 0,1.683 1.332,3.42 3.999,5.213 v -1.05 c -2.119,-1.465 -3.178,-2.994 -3.178,-4.59 m -5.148,-22.457 c 0,4.481 2.491,7.956 7.474,10.425 l 3.245,-1.049 c -5.659,-1.924 -8.489,-5.147 -8.489,-9.671 0,-1.792 0.468,-3.482 1.408,-5.065 0.939,-1.585 2.218,-2.836 3.836,-3.754 v 0.263 c -2.95,2.469 -4.426,5.278 -4.426,8.424 0,4.089 2.874,7.235 8.623,9.443 l 0.623,-0.229 c 3.563,-1.4 6.168,-2.984 7.819,-4.755 1.65,-1.769 2.475,-3.868 2.475,-6.294 0,-2.6 -0.88,-4.655 -2.639,-6.164 -1.76,-1.507 -4.158,-2.261 -7.196,-2.261 -3.89,0 -6.989,0.967 -9.294,2.9 -2.307,1.936 -3.459,4.53 -3.459,7.787 m 23.423,-9.573 c 2.918,2.273 4.377,5.224 4.377,8.852 0,2.58 -0.72,4.977 -2.163,7.196 -1.442,2.219 -3.464,4.027 -6.065,5.426 2.055,0.919 3.725,2.24 5.016,3.967 1.289,1.726 1.935,3.497 1.935,5.311 0,3.016 -1.291,5.321 -3.869,6.918 0.131,-0.176 0.228,-0.296 0.295,-0.361 1.18,-1.574 1.938,-2.728 2.279,-3.459 0.338,-0.733 0.508,-1.634 0.508,-2.705 0,-3.913 -2.317,-7.004 -6.951,-9.278 -0.197,0.087 -0.318,0.143 -0.361,0.164 l -1.541,0.655 c -0.022,0.022 -0.164,0.088 -0.425,0.197 2.688,1.466 4.6,2.896 5.737,4.296 1.136,1.398 1.705,3.005 1.705,4.818 0,2.208 -0.892,4.076 -2.672,5.607 -1.783,1.53 -3.951,2.295 -6.509,2.295 -1.682,0 -3.087,-0.432 -4.213,-1.295 -1.126,-0.865 -1.688,-1.93 -1.688,-3.197 0,-1.093 0.34,-1.639 1.018,-1.639 0.349,0 0.654,0.316 0.917,0.951 0.788,1.814 2.262,2.72 4.425,2.72 1.661,0 3.066,-0.519 4.213,-1.557 1.148,-1.038 1.722,-2.3 1.722,-3.786 0,-3.563 -2.537,-6.098 -7.607,-7.607 -1.551,0.416 -3.256,1.071 -5.114,1.968 -2.228,1.071 -3.769,2.059 -4.622,2.968 -0.852,0.905 -1.279,2.015 -1.279,3.326 0,2.404 1.553,4.503 4.656,6.296 l 3.999,2.327 c 3.935,2.272 5.901,4.359 5.901,6.262 0,0.765 -0.241,1.453 -0.721,2.065 -0.481,0.611 -1.016,0.918 -1.607,0.918 -1.202,0 -1.802,-0.636 -1.802,-1.902 0,-0.765 0.251,-1.256 0.753,-1.475 l 0.493,-0.229 c 0.174,-0.066 0.261,-0.187 0.261,-0.36 0.021,-0.263 -0.208,-0.558 -0.688,-0.886 l -1.016,-0.754 c -1.201,-0.896 -3.049,-1.999 -5.541,-3.311 -3.824,-2.012 -6.442,-3.814 -7.852,-5.41 -1.408,-1.595 -2.114,-3.551 -2.114,-5.868 0,-3.65 2.677,-6.633 8.032,-8.95 l -0.622,-0.262 c -3.563,-1.596 -6.148,-3.334 -7.755,-5.213 -1.606,-1.88 -2.408,-4.087 -2.408,-6.622 0,-3.737 1.649,-6.804 4.949,-9.196 3.301,-2.395 7.53,-3.59 12.688,-3.59 4.633,0 8.409,1.136 11.326,3.409 m 5.395,14.54 c 0.982,-1.848 1.475,-3.83 1.475,-5.95 0,-4.327 -1.635,-7.824 -4.902,-10.491 -3.267,-2.666 -7.569,-4 -12.901,-4 -5.179,0 -9.3,1.345 -12.359,4.033 v 0.164 l 0.492,-0.328 c 1.704,-1.094 3.446,-1.869 5.229,-2.328 1.78,-0.459 3.962,-0.688 6.54,-0.688 5.158,0 9.289,1.256 12.393,3.77 3.102,2.514 4.656,5.879 4.656,10.097 0,2.797 -0.854,5.246 -2.559,7.343 l -1.541,1.902 c -0.021,0.022 -0.12,0.163 -0.294,0.427 1.529,-0.787 2.787,-2.105 3.771,-3.951 m -16.688,18.409 h -0.492 c 0.94,1.901 2.426,2.851 4.458,2.851 1.968,0 3.421,-0.95 4.362,-2.851 h -0.296 c -1.245,1.333 -2.602,1.999 -4.066,1.999 -1.749,0 -3.069,-0.666 -3.966,-1.999 m 6.065,13.834 c 0,0.918 -0.383,1.945 -1.148,3.082 l 0.329,0.295 c 1.135,-1.049 1.704,-2.153 1.704,-3.311 0,-2.185 -1.553,-4.251 -4.656,-6.196 L 244.198,322 h -1.311 c 3.606,2.143 5.41,4.252 5.41,6.328 m 18.992,-30.637 h 27.178 c -0.459,-3.976 -1.957,-8.348 -4.491,-13.113 l -3.116,-5.869 c -3.102,-5.835 -4.653,-12.522 -4.653,-20.063 l 0.064,-2.361 h -8.786 c 0,1.903 0.405,4.448 1.213,7.639 1.201,4.808 4.011,10.218 8.425,16.228 l 4.098,5.574 c 0.83,1.136 1.662,2.589 2.492,4.359 h -17.998 v -0.687 -0.656 c 0,-4.349 -1.52,-6.524 -4.558,-6.524 -1.071,0 -2.053,0.339 -2.95,1.015 h 1.476 c 0.503,-0.173 0.962,-0.261 1.377,-0.261 2.534,0 3.802,1.825 3.802,5.475 l 0.034,1.344 v 1.147 h 19.177 l 0.164,0.361 c 0.242,0.547 0.382,1.006 0.427,1.377 h -21.671 v -1.409 c 0,-4.546 -1.103,-6.819 -3.31,-6.819 -0.657,0 -1.214,0.162 -1.673,0.491 -0.459,0.328 -0.689,0.721 -0.689,1.18 0,1.05 0.482,1.573 1.444,1.573 0.37,0 0.731,-0.152 1.081,-0.458 0.197,-0.198 0.371,-0.296 0.525,-0.296 0.59,0 0.885,0.843 0.885,2.526 l 0.033,1.803 z m 61.239,-6.007 c 1.454,-1.486 2.564,-3.016 3.328,-4.59 l -0.392,-0.163 c -2.34,-0.897 -3.641,-1.399 -3.901,-1.509 l -4.198,-1.967 -0.261,-0.131 -0.362,0.655 c 2.339,1.399 4.994,2.59 7.967,3.575 -1.225,2.403 -3.355,4.73 -6.393,6.982 v 0.23 c 1.356,-0.568 2.759,-1.595 4.212,-3.082 M 307.4,268.374 c -0.021,-0.327 -0.033,-0.535 -0.033,-0.622 0,-5.989 2.447,-9.835 7.343,-11.541 l 0.296,-0.099 v -0.228 c -2.405,0 -4.416,1.165 -6.032,3.491 -1.619,2.329 -2.427,5.219 -2.427,8.672 0,0.219 0.021,0.633 0.065,1.246 0.263,-0.065 0.59,-0.1 0.984,-0.1 0.808,0 1.365,0.526 1.673,1.576 l 0.294,1.015 c 1.136,3.759 2.972,5.639 5.508,5.639 1.487,0 2.835,-0.608 4.049,-1.819 1.213,-1.214 2.027,-2.76 2.443,-4.639 h -0.231 c -1.923,3.759 -4.054,5.638 -6.392,5.638 -2.251,0 -3.782,-1.693 -4.589,-5.081 -0.526,-2.121 -1.4,-3.181 -2.623,-3.181 -0.066,0 -0.175,0.012 -0.328,0.033 m 17.573,10 c 2.338,-2.688 3.507,-6.24 3.507,-10.655 0,-4.524 -1.312,-8.186 -3.933,-10.984 -2.624,-2.797 -6.056,-4.195 -10.296,-4.195 -4.874,0 -8.708,1.824 -11.507,5.475 -1.443,1.88 -2.601,4.299 -3.474,7.26 -0.875,2.962 -1.311,5.952 -1.311,8.967 0,6.427 1.633,11.754 4.9,15.984 3.268,4.228 7.37,6.342 12.31,6.342 2.863,0 5.394,-0.687 7.59,-2.064 2.196,-1.378 3.874,-3.334 5.032,-5.869 l -0.327,-0.131 -1.771,-0.853 c -1.836,-0.961 -3.224,-1.781 -4.164,-2.458 -0.021,0.218 -0.032,0.382 -0.032,0.492 -0.416,5.463 -2.809,8.196 -7.18,8.196 -1.356,0 -2.694,-0.416 -4.016,-1.246 -1.322,-0.83 -2.389,-1.946 -3.197,-3.344 -1.835,-3.17 -2.752,-8.677 -2.752,-16.523 0,-6.317 0.785,-10.798 2.359,-13.443 1.705,-2.862 4.032,-4.294 6.982,-4.294 2.558,0 4.677,1.246 6.362,3.738 1.682,2.491 2.524,5.617 2.524,9.376 0,3.541 -0.688,6.317 -2.065,8.327 -1.377,2.01 -3.279,3.017 -5.705,3.017 -1.858,0 -3.389,-0.601 -4.59,-1.803 -1.202,-1.203 -1.989,-2.918 -2.361,-5.148 -0.174,-1.115 -0.569,-1.672 -1.18,-1.672 -0.961,0 -1.443,0.634 -1.443,1.902 0,2.71 1.011,4.993 3.034,6.851 2.02,1.859 4.518,2.787 7.491,2.787 3.803,0 6.873,-1.344 9.213,-4.032 m -4.263,9.408 -0.263,0.197 -1.343,1.377 c -1.18,1.203 -2.58,1.803 -4.198,1.803 -1.835,0 -3.387,-0.787 -4.654,-2.36 -1.094,-1.355 -1.99,-4.098 -2.689,-8.23 l -0.065,-0.294 -0.886,-1.048 c 0.701,8.502 3.431,12.752 8.197,12.752 1.378,0 2.623,-0.399 3.738,-1.197 1.114,-0.799 1.836,-1.797 2.163,-3 m 30.017,3.47 c -1.596,0 -2.963,-0.317 -4.099,-0.951 -1.137,-0.634 -2.372,-1.77 -3.705,-3.41 l -0.722,0.394 c 2.077,3.147 4.94,4.721 8.59,4.721 3.585,0 6.186,-1.705 7.804,-5.115 h -0.263 l -0.36,0.492 c -1.968,2.579 -4.383,3.869 -7.245,3.869 m -5.477,-10.491 c -0.218,-1.245 -0.326,-2.306 -0.326,-3.181 0,-1.704 0.495,-3.201 1.491,-4.491 0.994,-1.289 2.364,-2.218 4.113,-2.786 v -0.394 c -1.945,0.284 -3.518,1.174 -4.719,2.672 -1.203,1.497 -1.805,3.316 -1.805,5.459 0,0.897 0.143,1.879 0.428,2.95 z m 38.369,83.096 c 0.984,0.601 1.737,1.371 2.263,2.311 l 0.754,-0.46 c -1.488,-2.36 -3.476,-3.54 -5.967,-3.54 -1.792,0 -3.529,0.863 -5.213,2.59 l -0.196,0.164 v 0.196 c 0.175,-0.109 0.272,-0.175 0.295,-0.196 l 1.114,-0.82 c 0.983,-0.765 2.283,-1.148 3.901,-1.148 1.049,0 2.066,0.301 3.049,0.903 m -1.705,-13.951 c -0.24,-1.879 -0.36,-3.125 -0.36,-3.737 0,-3.169 1.344,-5.454 4.034,-6.852 v -0.328 c -1.467,0.414 -2.656,1.291 -3.574,2.622 -0.919,1.334 -1.377,2.875 -1.377,4.624 0,0.962 0.151,2.229 0.458,3.802 l 0.032,0.23 h 0.82 c -0.021,-0.175 -0.033,-0.295 -0.033,-0.361 m 1.181,23.228 c -0.918,-0.776 -1.377,-1.775 -1.377,-2.999 0,-0.875 0.404,-1.596 1.214,-2.165 0.02,-0.021 0.064,-0.065 0.131,-0.13 l -0.362,-0.525 c -1.29,0.546 -1.933,1.508 -1.933,2.885 0,1.398 0.55,2.568 1.655,3.508 1.102,0.939 2.485,1.409 4.147,1.409 1.77,0 3.289,-0.437 4.557,-1.311 1.267,-0.874 2.164,-2.098 2.688,-3.671 h -0.294 l -0.295,0.425 c -1.772,2.492 -3.979,3.738 -6.623,3.738 -1.421,0 -2.59,-0.389 -3.508,-1.164 m 0.885,-17.392 -0.262,0.853 c 1.332,0.327 2.458,0.491 3.377,0.491 3.233,0 5.486,-1.137 6.754,-3.409 h -0.198 c -1.726,1.704 -3.922,2.557 -6.589,2.557 -1.115,0 -2.054,-0.131 -2.82,-0.393 z m 14.327,21.277 c 1.311,-0.328 2.475,-1.327 3.491,-3 1.017,-1.672 1.525,-3.414 1.525,-5.229 0,-2.251 -0.721,-4.278 -2.164,-6.081 -1.442,-1.803 -3.245,-2.934 -5.409,-3.393 l -0.656,0.655 c 2.229,0.612 4.01,1.71 5.344,3.295 1.333,1.585 2,3.393 2,5.426 0,2.819 -1.291,5.508 -3.869,8.065 -0.065,0.044 -0.153,0.131 -0.262,0.262 m -84.822,79.62 c -1.126,-0.962 -1.688,-2.142 -1.688,-3.54 0,-1.902 0.994,-3.29 2.983,-4.164 v -0.426 c -1.114,0.196 -2.028,0.738 -2.738,1.623 -0.71,0.885 -1.064,1.918 -1.064,3.098 0,1.639 0.627,3.01 1.884,4.114 1.257,1.103 2.826,1.656 4.704,1.656 2.231,0 4.083,-0.677 5.558,-2.033 1.476,-1.355 2.212,-3.06 2.212,-5.114 -1.289,4.152 -3.867,6.229 -7.736,6.229 -1.619,0 -2.99,-0.481 -4.115,-1.443 m 6.312,-8.065 0.786,-0.295 c -0.743,-2.36 -1.793,-4.086 -3.146,-5.179 -1.357,-1.094 -3.127,-1.64 -5.312,-1.64 -2.863,0 -5.061,1.224 -6.59,3.672 h 0.262 l 0.361,-0.295 c 1.223,-1.071 2.229,-1.782 3.016,-2.131 0.787,-0.35 1.726,-0.525 2.819,-0.525 4.371,0 6.972,2.132 7.804,6.393 m 14.589,-19.539 h 0.885 v -10.688 h -29.834 l -0.591,0.886 h 29.54 z m -1.64,-7.999 h -30.49 c 0.787,3.54 2.203,6.633 4.246,9.278 2.045,2.643 4.978,5.168 8.803,7.573 3.453,2.164 5.769,3.879 6.949,5.146 2.34,2.58 3.51,5.585 3.51,9.017 0,2.709 -0.783,4.84 -2.345,6.393 -1.563,1.551 -3.71,2.327 -6.442,2.327 -2.339,0 -4.267,-0.661 -5.787,-1.983 -1.518,-1.323 -2.278,-3 -2.278,-5.032 0,-1.619 0.481,-2.968 1.442,-4.05 0.962,-1.082 2.175,-1.622 3.639,-1.622 1.443,0 2.787,0.655 4.032,1.967 l 0.526,-0.295 c -0.284,-1.705 -1.055,-3.077 -2.313,-4.115 -1.256,-1.038 -2.781,-1.557 -4.573,-1.557 -2.513,0 -4.583,0.781 -6.212,2.344 -1.629,1.562 -2.443,3.545 -2.443,5.95 0,3.192 1.306,5.831 3.918,7.918 2.611,2.087 5.896,3.131 9.852,3.131 4.283,0 7.902,-1.203 10.852,-3.606 2.95,-2.405 4.426,-5.345 4.426,-8.82 0,-5.049 -3.552,-9.54 -10.656,-13.474 l -5.015,-2.754 c -3.672,-2.011 -6.602,-4.939 -8.786,-8.786 -0.044,-0.066 -0.099,-0.153 -0.164,-0.262 h 2.098 c 1.683,3.147 4.797,5.955 9.343,8.425 l 4.524,2.426 c 3.627,1.968 6.267,4.038 7.917,6.213 1.652,2.175 2.476,4.66 2.476,7.458 0,4.197 -1.836,7.683 -5.508,10.459 l 0.197,0.262 c 4.174,-2.164 6.261,-5.738 6.261,-10.721 0,-5.704 -3.585,-10.502 -10.753,-14.392 l -4.491,-2.459 c -4.809,-2.601 -7.726,-5.158 -8.753,-7.671 h 10.229 c 4.173,0 6.95,0.279 8.327,0.836 1.377,0.557 2.305,1.775 2.787,3.656 h 0.655 z m 51.369,-44.073 c 0.627,0.131 1.282,0.22 1.995,0.22 0.703,0 1.37,-0.079 2.009,-0.22 z m -2.67,-42.015 c -0.621,0.2 -1.227,0.438 -1.824,0.698 0.141,0.434 0.268,0.859 0.385,1.276 0.605,-0.213 1.252,-0.39 1.929,-0.537 -0.161,-0.487 -0.325,-0.962 -0.49,-1.437 m -4.809,-10.894 c -2.263,-4.011 -5.339,-8.234 -9.23,-12.67 l -0.196,-0.231 h -0.875 c -0.132,0.388 -0.308,0.787 -0.514,1.196 3.535,4.073 6.689,8.611 9.454,13.624 1.827,3.309 3.197,6.311 4.128,9.016 0.569,-0.289 1.167,-0.541 1.793,-0.761 -1.352,-3.79 -2.873,-7.181 -4.56,-10.174 m 3.262,-15.128 v -1.771 h -13.553 c 0.193,0.556 0.303,1.146 0.33,1.771 z m -14.52,-1.771 h -1.968 c 0.428,0.513 0.728,1.106 0.909,1.771 h 1.605 c -0.086,-0.615 -0.274,-1.205 -0.546,-1.771 m -1.014,-1.577 c -1.093,-1.267 -2.492,-2.099 -4.196,-2.491 l -4.263,-0.492 h -2.819 -9.539 v -8.032 c -0.395,-0.24 -0.82,-0.547 -1.279,-0.918 l -0.558,-0.426 v 11.113 h 11.245 c 3.999,0 6.929,0.497 8.786,1.491 0.274,0.146 0.52,0.309 0.751,0.479 h 2.403 c -0.165,-0.243 -0.329,-0.489 -0.531,-0.724 m 1.142,6.397 0.093,0.108 c 0.103,-0.315 0.186,-0.625 0.25,-0.93 h -0.343 z m 15.625,66.791 c -1.482,-0.424 -2.78,-1.025 -3.897,-1.803 h -13.303 l 0.59,-0.886 h 11.606 c -0.192,-0.175 -0.394,-0.344 -0.572,-0.533 -1.488,-1.596 -2.23,-3.246 -2.23,-4.951 0,-1.749 0.584,-3.224 1.754,-4.425 1.168,-1.202 2.617,-1.803 4.345,-1.803 2.381,0 3.976,0.971 4.785,2.917 l -0.491,0.262 c -0.569,-0.524 -1.181,-0.786 -1.836,-0.786 -0.941,0 -1.7,0.365 -2.278,1.098 -0.58,0.732 -0.87,1.699 -0.87,2.902 0,1.879 0.69,3.42 2.066,4.622 0.304,0.266 0.636,0.49 0.978,0.697 h 8.63 c 0.555,-0.318 1.08,-0.698 1.571,-1.156 1.618,-1.508 2.426,-3.333 2.426,-5.475 0,-2.186 -0.737,-3.973 -2.213,-5.36 -1.475,-1.389 -3.36,-2.082 -5.655,-2.082 -0.503,0 -1.181,0.021 -2.033,0.066 h -0.295 l -1.277,-3.574 0.359,0.098 c 1.574,0.329 2.743,0.492 3.509,0.492 2.513,0 4.627,-1.054 6.344,-3.163 1.715,-2.11 2.573,-4.694 2.573,-7.754 0,-3.082 -0.777,-5.481 -2.328,-7.196 -1.551,-1.716 -3.716,-2.575 -6.492,-2.575 -5.551,0 -8.327,2.94 -8.327,8.821 0,1.245 0.153,2.523 0.459,3.835 -1.901,-1.442 -4.217,-2.612 -6.95,-3.508 l -0.295,-0.098 c 0.683,-3.527 2.045,-6.222 4.081,-8.099 h -3.442 c 0,-4.153 -1.158,-9.12 -3.476,-14.901 -1.676,-4.183 -3.574,-7.814 -5.685,-10.905 -0.613,0.645 -1.282,0.985 -2.012,0.985 -1.05,0 -1.574,-0.503 -1.574,-1.507 0,-0.985 0.503,-1.476 1.508,-1.476 0.337,0 0.631,0.118 0.886,0.34 -0.431,-0.569 -0.87,-1.122 -1.318,-1.649 l -0.164,-0.197 v -0.383 c -0.847,-0.158 -2.023,-0.242 -3.567,-0.242 h -1.116 -17.145 v -19.965 l 2.098,-1.279 c 2.425,3.759 5.617,5.639 9.573,5.639 3.038,0 5.377,-1.005 7.015,-3.017 1.64,-2.011 2.459,-4.896 2.459,-8.654 0,-4.044 -0.841,-7.224 -2.524,-9.54 -1.684,-2.317 -3.988,-3.476 -6.917,-3.476 -2.689,0 -4.771,0.804 -6.245,2.409 -1.476,1.608 -2.213,3.865 -2.213,6.771 0,1.115 0.098,2.283 0.295,3.509 -1.596,-1.291 -4,-2.734 -7.213,-4.329 l -0.427,-0.229 c 0.568,-3.345 2.218,-5.973 4.951,-7.886 2.732,-1.912 6.217,-2.867 10.457,-2.867 5.181,0 9.274,1.344 12.279,4.032 3.005,2.688 4.507,6.35 4.507,10.983 0,4.524 -1.442,8.174 -4.327,10.95 -2.884,2.776 -6.688,4.163 -11.409,4.163 -2.427,0 -4.655,-0.535 -6.687,-1.607 v 6.689 h 8.719 2.657 c 3.19,0 5.801,0.699 7.836,2.099 1.048,0.722 1.823,1.555 2.331,2.493 h 13.923 v -5.114 l -4.033,-3.246 h 14.031 l -3.868,3.443 v 7.541 h 2.262 0.591 c 1.136,0 1.704,-0.264 1.704,-0.788 0,-0.087 -0.022,-0.174 -0.065,-0.262 l -0.23,-0.262 c -0.152,-0.197 -0.228,-0.493 -0.228,-0.885 0,-1.05 0.699,-1.573 2.097,-1.573 0.634,0 1.158,0.222 1.573,0.669 0.415,0.448 0.623,1.012 0.623,1.691 0,1.202 -0.491,2.108 -1.476,2.72 -0.983,0.612 -2.437,0.917 -4.358,0.917 v 17.999 l -0.886,0.197 v -18.196 h -1.607 v 19.475 h -0.623 c -1.071,-1.749 -2.841,-3.409 -5.31,-4.982 -0.044,-0.023 -0.111,-0.056 -0.197,-0.1 V 311.153 H 368.26 c 5.9,6.017 10.468,13.634 13.714,22.836 1.839,-0.546 3.896,-0.836 6.203,-0.836 5.158,0 9.31,1.295 12.457,3.887 3.147,2.589 4.72,5.992 4.72,10.211 0,1.923 -0.322,3.573 -0.965,4.95 -0.646,1.377 -1.799,2.907 -3.459,4.59 l -0.263,-0.295 c 0.109,-0.153 0.197,-0.274 0.263,-0.361 1.376,-1.857 2.305,-3.393 2.786,-4.606 0.48,-1.213 0.722,-2.639 0.722,-4.278 0,-3.89 -1.538,-7.082 -4.607,-9.573 -3.07,-2.491 -6.999,-3.739 -11.786,-3.739 -2.051,0 -3.99,0.271 -5.83,0.783 0.17,0.497 0.334,1.002 0.495,1.506 1.319,-0.232 2.755,-0.353 4.319,-0.353 4.873,0 8.693,1.081 11.458,3.245 2.765,2.164 4.148,5.169 4.148,9.016 0,5.901 -3.17,9.847 -9.508,11.835 -0.439,0.152 -0.667,0.339 -0.689,0.558 -0.022,0.175 0.241,0.338 0.788,0.491 2.228,0.546 3.999,1.601 5.309,3.164 1.313,1.562 1.969,3.393 1.969,5.492 0,2.885 -1.241,5.25 -3.722,7.098 -0.743,0.552 -1.557,1.012 -2.428,1.4 v 8.591 h -0.885 v -8.228 c -0.525,0.191 -1.073,0.351 -1.639,0.487 v 8.922 h -0.656 c -0.481,-1.881 -1.409,-3.099 -2.786,-3.656 -1.377,-0.557 -4.154,-0.836 -8.327,-0.836 h -10.23 c 1.027,2.513 3.945,5.07 8.754,7.671 l 4.491,2.459 c 7.168,3.89 10.754,8.688 10.754,14.393 0,4.983 -2.088,8.556 -6.262,10.72 l -0.197,-0.263 c 3.672,-2.775 5.508,-6.261 5.508,-10.457 0,-2.799 -0.825,-5.284 -2.476,-7.459 -1.649,-2.175 -4.289,-4.245 -7.917,-6.213 l -4.523,-2.426 c -4.547,-2.47 -7.661,-5.278 -9.345,-8.425 h -2.097 c 0.065,0.109 0.119,0.197 0.164,0.262 2.184,3.847 5.114,6.775 8.786,8.786 l 5.015,2.754 c 7.104,3.935 10.656,8.425 10.656,13.475 0,3.475 -1.476,6.414 -4.426,8.819 -2.95,2.404 -6.569,3.606 -10.853,3.606 -3.955,0 -7.24,-1.044 -9.85,-3.131 -2.613,-2.087 -3.918,-4.726 -3.918,-7.918 0,-2.404 0.813,-4.388 2.442,-5.95 1.627,-1.563 3.698,-2.344 6.213,-2.344 1.791,0 3.316,0.519 4.573,1.557 1.256,1.038 2.028,2.41 2.312,4.115 l -0.526,0.295 c -1.246,-1.311 -2.588,-1.967 -4.032,-1.967 -1.465,0 -2.677,0.541 -3.639,1.622 -0.961,1.082 -1.443,2.431 -1.443,4.05 0,2.032 0.759,3.709 2.279,5.032 1.519,1.322 3.448,1.984 5.788,1.984 2.73,0 4.878,-0.777 6.441,-2.328 1.562,-1.553 2.344,-3.684 2.344,-6.393 0,-3.432 -1.169,-6.437 -3.507,-9.016 -1.182,-1.268 -3.497,-2.983 -6.951,-5.147 -3.826,-2.405 -6.76,-4.929 -8.803,-7.573 -2.044,-2.645 -3.459,-5.738 -4.245,-9.278 z m -2.25,27.538 0.786,-0.294 c -0.743,-2.361 -1.792,-4.088 -3.146,-5.181 -1.357,-1.092 -3.127,-1.638 -5.312,-1.638 -2.864,0 -5.061,1.223 -6.59,3.671 h 0.263 l 0.359,-0.294 c 1.225,-1.072 2.231,-1.783 3.017,-2.132 0.787,-0.35 1.725,-0.524 2.819,-0.524 4.371,0 6.972,2.131 7.804,6.392 m -6.313,8.066 c -1.126,-0.963 -1.687,-2.143 -1.687,-3.542 0,-1.901 0.994,-3.289 2.983,-4.163 v -0.426 c -1.115,0.197 -2.028,0.737 -2.737,1.623 -0.711,0.885 -1.065,1.918 -1.065,3.098 0,1.639 0.627,3.01 1.884,4.114 1.256,1.103 2.825,1.656 4.704,1.656 2.231,0 4.082,-0.678 5.558,-2.032 1.476,-1.356 2.214,-3.061 2.214,-5.115 -1.291,4.152 -3.87,6.229 -7.738,6.229 -1.618,0 -2.99,-0.481 -4.116,-1.442 m -36.627,33.982 c 0,1.093 0.513,1.66 1.541,1.705 0.918,0.044 1.377,-0.372 1.377,-1.246 0,-0.153 -0.021,-0.306 -0.065,-0.459 -0.022,-0.11 -0.032,-0.186 -0.032,-0.229 0.019,-0.35 0.315,-0.525 0.884,-0.525 1.443,0 2.864,0.558 4.261,1.672 1.399,1.115 2.448,2.524 3.149,4.229 h 3.9 v -37.996 l 4,-3.41 h -14.13 l 4.163,3.41 v 28.85 c -1.266,-0.656 -2.546,-0.984 -3.835,-0.984 -2.011,0 -3.562,0.819 -4.655,2.459 h 0.262 c 1.333,-1.094 2.775,-1.64 4.328,-1.64 1.464,0 2.765,0.383 3.9,1.148 v 2.033 c -1.486,-1.094 -3.223,-1.64 -5.213,-1.64 -1.092,0 -2.005,0.251 -2.737,0.754 -0.731,0.503 -1.098,1.126 -1.098,1.869 M 193.18,524.139 c 1.299,-0.384 2.514,-0.838 3.695,-1.322 -0.29,-0.202 -0.575,-0.394 -0.868,-0.597 -0.794,-0.525 -1.539,-1.158 -2.323,-1.744 -0.771,-0.606 -1.579,-1.177 -2.322,-1.854 -0.754,-0.655 -1.515,-1.315 -2.278,-1.978 -0.763,-0.66 -1.456,-1.412 -2.185,-2.113 -1.482,-1.379 -2.771,-2.96 -4.084,-4.449 -0.681,-0.723 -1.211,-1.572 -1.807,-2.34 -0.571,-0.789 -1.164,-1.544 -1.691,-2.326 -0.491,-0.807 -0.974,-1.601 -1.446,-2.378 -0.453,-0.786 -0.975,-1.503 -1.316,-2.303 -0.726,-1.568 -1.503,-2.997 -2.046,-4.392 -0.502,-1.408 -0.963,-2.698 -1.371,-3.841 -0.388,-1.145 -0.552,-2.2 -0.776,-3.034 -0.396,-1.683 -0.622,-2.644 -0.622,-2.644 0,0 0.33,0.93 0.909,2.559 0.312,0.802 0.582,1.813 1.09,2.897 0.521,1.072 1.111,2.282 1.751,3.602 0.676,1.296 1.59,2.605 2.448,4.028 0.405,0.729 0.992,1.371 1.508,2.075 0.533,0.691 1.076,1.398 1.628,2.116 0.586,0.692 1.236,1.352 1.861,2.041 0.648,0.668 1.225,1.41 1.955,2.028 1.407,1.278 2.772,2.628 4.322,3.778 0.764,0.585 1.482,1.218 2.272,1.76 0.787,0.544 1.57,1.085 2.348,1.622 0.758,0.556 1.585,1.012 2.369,1.499 0.799,0.468 1.55,0.981 2.352,1.391 1.246,0.673 2.447,1.31 3.636,1.892 1.037,-0.646 2.023,-1.326 2.952,-2.048 -1.203,-0.763 -2.825,-1.9 -3.891,-2.638 -0.636,-0.42 -1.648,-1.222 -2.278,-1.69 -0.616,-0.485 -1.697,-1.248 -2.29,-1.79 -0.603,-0.524 -1.652,-1.362 -2.262,-1.893 -0.61,-0.527 -1.604,-1.439 -2.188,-2.001 -1.186,-1.103 -3.158,-3.031 -4.208,-4.223 -0.544,-0.578 -1.404,-1.566 -1.881,-2.18 -0.457,-0.632 -1.355,-1.535 -1.778,-2.161 -0.393,-0.646 -1.191,-1.572 -1.569,-2.193 -0.361,-0.63 -1.171,-1.48 -1.443,-2.12 -0.582,-1.254 -1.928,-2.908 -2.362,-4.024 -0.401,-1.126 -1.371,-2.583 -1.698,-3.498 -0.312,-0.915 -0.902,-2.084 -1.082,-2.752 -0.316,-1.346 -0.891,-2.392 -0.891,-2.392 0,0 0.723,0.993 1.185,2.295 0.25,0.642 0.975,1.726 1.381,2.593 0.418,0.858 1.555,2.187 2.07,3.244 0.541,1.036 2.054,2.508 2.74,3.646 0.325,0.583 1.221,1.327 1.634,1.89 0.425,0.553 1.298,1.356 1.74,1.931 0.471,0.553 1.436,1.323 1.935,1.875 0.519,0.534 1.445,1.379 2.028,1.874 1.127,1.022 3.171,2.617 4.411,3.537 0.61,0.469 1.718,1.262 2.349,1.697 0.629,0.434 1.74,1.129 2.362,1.56 0.607,0.445 1.737,1.062 2.364,1.452 0.638,0.374 1.695,1.032 2.338,1.36 0.918,0.495 2.441,1.324 3.318,1.761 0.333,0.166 0.901,0.453 1.23,0.602 0.262,0.13 0.561,0.275 0.877,0.426 0.715,-0.77 1.397,-1.556 2.031,-2.366 -0.172,-0.11 -0.329,-0.21 -0.453,-0.29 -0.902,-0.536 -3.427,-2.314 -4.369,-2.965 -0.475,-0.315 -1.758,-1.285 -2.229,-1.636 -0.463,-0.364 -1.816,-1.319 -2.261,-1.726 -0.453,-0.393 -1.787,-1.409 -2.244,-1.806 -0.459,-0.396 -1.753,-1.468 -2.19,-1.889 -0.89,-0.827 -3.545,-3.105 -4.333,-3.998 -0.409,-0.433 -1.6,-1.56 -1.957,-2.021 -0.342,-0.474 -1.547,-1.526 -1.862,-1.996 -0.295,-0.484 -1.41,-1.542 -1.694,-2.008 -0.271,-0.472 -1.367,-1.456 -1.572,-1.936 -0.436,-0.94 -2.35,-2.819 -2.674,-3.657 -0.303,-0.844 -1.783,-2.469 -2.028,-3.154 -0.233,-0.687 -1.253,-1.97 -1.386,-2.471 -0.238,-1.009 -1.16,-2.139 -1.16,-2.139 0,0 1.116,1.054 1.462,2.031 0.188,0.481 1.366,1.638 1.67,2.288 0.314,0.643 2.004,2.094 2.388,2.886 0.405,0.778 2.52,2.41 3.036,3.265 0.242,0.436 1.447,1.283 1.756,1.705 0.32,0.415 1.521,1.314 1.853,1.745 0.353,0.415 1.636,1.294 2.011,1.709 0.389,0.401 1.664,1.349 2.101,1.719 0.846,0.768 3.569,2.608 4.498,3.298 0.458,0.352 1.952,1.307 2.427,1.632 0.471,0.326 1.908,1.176 2.376,1.498 0.456,0.334 1.887,1.114 2.357,1.406 0.48,0.281 1.843,1.083 2.324,1.329 0.69,0.371 2.623,1.422 3.281,1.749 0.25,0.124 0.973,0.501 1.221,0.613 0.169,0.085 0.406,0.202 0.668,0.331 0.528,-0.911 1.024,-1.829 1.475,-2.754 -0.859,-0.551 -3.489,-2.405 -4.072,-2.807 -0.316,-0.21 -1.867,-1.348 -2.182,-1.583 -0.308,-0.242 -1.934,-1.39 -2.231,-1.661 -0.301,-0.262 -1.922,-1.456 -2.227,-1.721 -0.304,-0.263 -1.901,-1.495 -2.193,-1.776 -0.591,-0.551 -3.932,-3.177 -4.457,-3.773 -0.272,-0.29 -1.794,-1.555 -2.031,-1.862 -0.229,-0.316 -1.739,-1.516 -1.95,-1.829 -0.195,-0.324 -1.626,-1.515 -1.815,-1.825 -0.181,-0.315 -1.564,-1.431 -1.701,-1.751 -0.291,-0.627 -2.773,-2.732 -2.989,-3.29 -0.202,-0.563 -2.191,-2.354 -2.354,-2.811 -0.157,-0.458 -1.603,-1.855 -1.694,-2.189 -0.158,-0.672 -1.426,-1.888 -1.426,-1.888 0,0 1.507,1.117 1.738,1.768 0.125,0.322 1.758,1.551 1.961,1.985 0.208,0.429 2.447,1.998 2.704,2.526 0.27,0.519 2.987,2.314 3.329,2.883 0.163,0.292 1.677,1.24 1.882,1.522 0.214,0.276 1.744,1.271 1.966,1.558 0.234,0.277 1.835,1.267 2.084,1.543 0.26,0.267 1.884,1.318 2.176,1.566 0.563,0.511 3.966,2.597 4.586,3.057 0.304,0.235 2.185,1.351 2.501,1.569 0.316,0.216 2.081,1.22 2.391,1.435 0.304,0.223 2.039,1.165 2.352,1.36 0.321,0.187 1.991,1.133 2.311,1.297 0.459,0.247 2.805,1.519 3.244,1.738 0.029,0.015 0.088,0.046 0.157,0.081 0.407,-1.125 0.771,-2.24 1.09,-3.336 -0.927,-0.649 -1.828,-1.284 -1.978,-1.388 -0.16,-0.105 -1.978,-1.411 -2.136,-1.529 -0.153,-0.121 -2.053,-1.46 -2.201,-1.596 -0.152,-0.131 -2.057,-1.502 -2.211,-1.635 -0.153,-0.132 -2.048,-1.523 -2.194,-1.664 -0.296,-0.275 -4.318,-3.251 -4.583,-3.548 -0.134,-0.145 -1.986,-1.549 -2.107,-1.703 -0.113,-0.157 -1.929,-1.507 -2.035,-1.664 -0.097,-0.161 -1.842,-1.484 -1.937,-1.64 -0.09,-0.157 -1.761,-1.407 -1.83,-1.567 -0.144,-0.314 -3.196,-2.643 -3.305,-2.922 -0.1,-0.281 -2.6,-2.239 -2.681,-2.468 -0.078,-0.229 -1.954,-1.741 -2,-1.907 -0.078,-0.336 -1.694,-1.636 -1.694,-1.636 0,0 1.899,1.179 2.016,1.504 0.063,0.161 2.15,1.464 2.251,1.68 0.104,0.215 2.894,1.904 3.023,2.168 0.134,0.26 3.45,2.217 3.622,2.502 0.082,0.145 1.903,1.196 2.006,1.337 0.106,0.138 1.967,1.229 2.079,1.372 0.116,0.139 2.034,1.239 2.159,1.377 0.131,0.133 2.102,1.289 2.248,1.412 0.283,0.256 4.365,2.587 4.675,2.818 0.151,0.116 2.42,1.394 2.577,1.503 0.158,0.108 2.25,1.267 2.406,1.374 0.151,0.111 2.19,1.216 2.347,1.313 0.159,0.093 2.136,1.184 2.298,1.266 0.044,0.024 0.205,0.111 0.405,0.219 0.291,-1.471 0.508,-2.851 0.674,-4.128 l -7.28,-5.14 -23.923,-16.893 25.728,13.932 5.919,3.206 c 0.088,-1.807 0.056,-2.889 0.056,-2.889 l -49.772,-31.769 c -13.059,26.869 -4.177,59.955 21.603,76.412 m 243.793,-79.493 -49.18,32.677 c 0,0 -0.014,1.083 0.108,2.888 l 5.861,-3.315 25.468,-14.401 -11.805,8.665 -11.805,8.664 -7.183,5.272 c 0.189,1.274 0.43,2.651 0.749,4.117 0.291,-0.165 0.502,-0.284 0.565,-0.32 0.159,-0.085 2.118,-1.214 2.276,-1.31 0.155,-0.101 2.203,-1.261 2.354,-1.375 0.153,-0.111 2.217,-1.302 2.373,-1.413 0.155,-0.111 2.209,-1.322 2.359,-1.442 0.307,-0.236 4.145,-2.529 4.422,-2.79 0.144,-0.126 2.134,-1.338 2.26,-1.474 0.123,-0.141 2.084,-1.312 2.199,-1.452 0.109,-0.147 1.969,-1.28 2.072,-1.421 0.1,-0.143 1.926,-1.24 2.004,-1.388 0.167,-0.288 3.479,-2.325 3.609,-2.587 0.124,-0.266 2.903,-2.018 3.003,-2.234 0.097,-0.219 2.202,-1.583 2.261,-1.745 0.11,-0.327 1.947,-1.518 1.947,-1.518 0,0 -1.671,1.388 -1.744,1.726 -0.042,0.168 -1.892,1.718 -1.968,1.948 -0.076,0.23 -2.581,2.263 -2.676,2.547 -0.104,0.281 -3.111,2.667 -3.251,2.983 -0.032,0.077 -0.788,0.677 -0.831,0.75 -0.045,0.08 -0.912,0.759 -0.957,0.842 -0.093,0.157 -1.824,1.52 -1.919,1.683 -0.103,0.159 -1.915,1.557 -2.026,1.716 -0.117,0.156 -1.958,1.605 -2.092,1.752 -0.257,0.302 -4.063,3.231 -4.354,3.512 -0.143,0.144 -1.903,1.489 -2.053,1.623 -0.151,0.136 -2.092,1.587 -2.241,1.72 -0.145,0.139 -2.038,1.527 -2.19,1.651 -0.154,0.12 -1.995,1.493 -2.151,1.601 -0.149,0.106 -1.028,0.75 -1.939,1.413 0.34,1.091 0.724,2.2 1.151,3.319 1.189,-0.653 3.03,-1.696 3.489,-1.955 0.317,-0.169 1.972,-1.148 2.288,-1.341 0.31,-0.201 2.052,-1.188 2.35,-1.417 0.307,-0.22 2.049,-1.252 2.36,-1.475 0.311,-0.223 2.029,-1.293 2.329,-1.533 0.612,-0.471 3.826,-2.534 4.38,-3.056 0.287,-0.253 1.921,-1.35 2.176,-1.622 0.245,-0.28 1.875,-1.327 2.103,-1.607 0.216,-0.292 1.743,-1.322 1.951,-1.602 0.201,-0.286 1.715,-1.272 1.87,-1.566 0.333,-0.576 3.04,-2.435 3.301,-2.958 0.246,-0.533 2.474,-2.153 2.673,-2.585 0.195,-0.437 1.837,-1.714 1.955,-2.038 0.221,-0.655 1.675,-1.783 1.675,-1.783 0,0 -1.305,1.284 -1.451,1.959 -0.082,0.335 -1.508,1.762 -1.655,2.223 -0.156,0.461 -2.142,2.309 -2.333,2.876 -0.207,0.562 -2.65,2.712 -2.929,3.345 -0.063,0.154 -0.679,0.696 -0.764,0.842 -0.093,0.159 -0.805,0.767 -0.896,0.933 -0.183,0.315 -1.599,1.538 -1.791,1.864 -0.205,0.317 -1.708,1.557 -1.929,1.876 -0.233,0.311 -1.744,1.613 -2.011,1.907 -0.514,0.606 -3.684,3.203 -4.266,3.765 -0.287,0.286 -1.775,1.487 -2.076,1.756 -0.302,0.271 -1.944,1.527 -2.24,1.795 -0.293,0.276 -1.911,1.464 -2.215,1.712 -0.309,0.24 -1.874,1.431 -2.187,1.647 -0.57,0.409 -3.13,2.284 -4.007,2.875 0.469,0.915 0.978,1.823 1.524,2.723 0.287,-0.149 0.545,-0.283 0.727,-0.378 0.892,-0.423 3.534,-1.925 4.473,-2.454 0.478,-0.255 1.828,-1.083 2.302,-1.373 0.464,-0.301 1.898,-1.116 2.347,-1.458 0.461,-0.332 1.88,-1.204 2.346,-1.539 0.468,-0.335 1.848,-1.262 2.3,-1.622 0.916,-0.707 3.505,-2.541 4.337,-3.323 0.429,-0.379 1.706,-1.361 2.088,-1.769 0.368,-0.42 1.666,-1.343 2.011,-1.764 0.324,-0.437 1.519,-1.362 1.831,-1.783 0.301,-0.428 1.503,-1.304 1.737,-1.744 0.498,-0.864 2.601,-2.546 2.991,-3.331 0.37,-0.798 2.043,-2.285 2.343,-2.934 0.293,-0.655 1.47,-1.844 1.65,-2.33 0.329,-0.983 1.404,-2.047 1.404,-2.047 0,0 -0.94,1.177 -1.159,2.19 -0.125,0.504 -1.122,1.808 -1.345,2.498 -0.231,0.691 -1.702,2.356 -1.987,3.206 -0.311,0.844 -2.191,2.758 -2.61,3.708 -0.092,0.23 -0.569,0.713 -0.696,0.932 -0.139,0.239 -0.696,0.777 -0.834,1.026 -0.274,0.472 -1.374,1.554 -1.66,2.044 -0.308,0.476 -1.503,1.557 -1.837,2.037 -0.349,0.466 -1.527,1.62 -1.928,2.062 -0.771,0.907 -3.302,3.173 -4.176,4.017 -0.43,0.429 -1.651,1.485 -2.101,1.889 -0.45,0.406 -1.795,1.468 -2.242,1.869 -0.437,0.415 -1.781,1.401 -2.238,1.774 -0.464,0.359 -1.751,1.369 -2.221,1.693 -0.928,0.668 -3.43,2.499 -4.323,3.052 -0.118,0.079 -0.265,0.178 -0.428,0.287 0.645,0.798 1.344,1.57 2.071,2.326 0.326,-0.162 0.635,-0.32 0.901,-0.459 1.191,-0.564 3.261,-1.745 4.513,-2.452 0.635,-0.339 1.682,-1.016 2.315,-1.403 0.619,-0.402 1.745,-1.044 2.343,-1.5 0.615,-0.442 1.711,-1.156 2.331,-1.603 0.623,-0.445 1.668,-1.231 2.271,-1.711 1.224,-0.943 3.185,-2.547 4.293,-3.59 0.574,-0.505 1.494,-1.372 2.005,-1.916 0.489,-0.56 1.457,-1.358 1.915,-1.919 0.432,-0.583 1.295,-1.404 1.711,-1.965 0.401,-0.571 1.29,-1.335 1.603,-1.923 0.665,-1.152 2.162,-2.655 2.682,-3.702 0.494,-1.065 1.613,-2.418 2.014,-3.283 0.39,-0.874 1.105,-1.977 1.344,-2.624 0.439,-1.311 1.132,-2.311 1.132,-2.311 0,0 -0.574,1.072 -0.865,2.422 -0.166,0.671 -0.738,1.852 -1.034,2.773 -0.31,0.921 -1.262,2.403 -1.644,3.536 -0.413,1.124 -1.728,2.803 -2.287,4.068 -0.124,0.307 -0.461,0.732 -0.63,1.024 -0.184,0.32 -0.588,0.787 -0.771,1.119 -0.367,0.629 -1.15,1.571 -1.532,2.223 -0.41,0.634 -1.296,1.558 -1.742,2.198 -0.466,0.622 -1.312,1.629 -1.845,2.217 -1.029,1.211 -2.924,3.145 -4.089,4.271 -0.574,0.571 -1.523,1.482 -2.123,2.02 -0.601,0.542 -1.649,1.41 -2.243,1.945 -0.583,0.552 -1.654,1.339 -2.261,1.835 -0.62,0.48 -1.629,1.308 -2.258,1.74 -1.05,0.756 -2.649,1.921 -3.836,2.707 0.94,0.704 1.94,1.366 2.988,1.992 1.177,-0.603 2.366,-1.262 3.6,-1.958 0.795,-0.424 1.536,-0.951 2.326,-1.434 0.774,-0.502 1.593,-0.971 2.342,-1.542 0.767,-0.552 1.541,-1.107 2.317,-1.665 0.781,-0.557 1.487,-1.202 2.239,-1.802 1.53,-1.178 2.868,-2.553 4.252,-3.856 0.717,-0.631 1.281,-1.384 1.918,-2.064 0.613,-0.7 1.249,-1.373 1.823,-2.075 0.539,-0.728 1.07,-1.445 1.589,-2.146 0.502,-0.713 1.078,-1.366 1.469,-2.101 0.832,-1.44 1.723,-2.765 2.374,-4.073 0.617,-1.332 1.183,-2.552 1.685,-3.634 0.487,-1.093 0.739,-2.108 1.037,-2.916 0.549,-1.639 0.861,-2.575 0.861,-2.575 0,0 -0.209,0.965 -0.574,2.653 -0.208,0.84 -0.351,1.897 -0.721,3.048 -0.386,1.152 -0.822,2.45 -1.298,3.866 -0.518,1.406 -1.268,2.849 -1.967,4.43 -0.325,0.805 -0.833,1.532 -1.272,2.326 -0.459,0.786 -0.926,1.588 -1.402,2.404 -0.514,0.792 -1.092,1.558 -1.649,2.358 -0.582,0.778 -1.096,1.637 -1.763,2.372 -1.285,1.514 -2.545,3.117 -4.001,4.523 -0.717,0.715 -1.396,1.48 -2.146,2.153 -0.752,0.677 -1.5,1.351 -2.243,2.02 -0.729,0.691 -1.526,1.276 -2.286,1.897 -0.774,0.6 -1.507,1.246 -2.291,1.785 -0.29,0.209 -0.571,0.407 -0.857,0.613 1.189,0.462 2.415,0.894 3.718,1.254 25.474,-16.927 33.747,-50.171 20.196,-76.795 m -267.848,-6.712 112.373,71.728 c -8.848,13.863 -21.974,23.333 -36.551,27.82 v 19.275 c 0,4.169 2.293,6.935 3.811,6.935 h 108.354 c 1.517,0 3.811,-2.766 3.811,-6.935 v -21.573 c -12.771,-4.531 -24.288,-12.971 -32.561,-24.986 l 109.8,-75.607 c 19.924,28.932 13.849,68.036 -13.092,89.696 1.296,0.519 2.451,1.427 3.262,2.693 1.581,2.473 1.392,5.567 -0.234,7.809 0.49,0.338 0.923,0.776 1.264,1.309 1.333,2.084 0.773,4.822 -1.221,6.243 l 2.215,3.115 c 1.112,1.561 0.746,3.726 -0.814,4.836 -1.563,1.111 -3.727,0.745 -4.836,-0.816 l -2.399,-3.373 -0.188,0.119 c -2.152,1.377 -5.011,0.748 -6.387,-1.403 -0.341,-0.533 -0.557,-1.109 -0.661,-1.695 -2.716,0.537 -5.605,-0.587 -7.186,-3.06 -1.063,-1.662 -1.323,-3.605 -0.891,-5.381 -10.422,3.98 -21.488,5.196 -32.2,3.819 v 18.255 c 0,11.472 -7.932,20.806 -17.682,20.806 H 248.758 c -9.75,0 -17.682,-9.334 -17.682,-20.806 v -16.563 c -10.213,0.894 -20.682,-0.557 -30.57,-4.533 0.746,1.978 0.588,4.27 -0.638,6.188 -1.581,2.474 -4.472,3.598 -7.188,3.06 -0.101,0.587 -0.319,1.164 -0.659,1.696 -1.376,2.151 -4.236,2.78 -6.387,1.403 l -0.004,-0.002 -1.745,2.452 c -1.111,1.563 -3.276,1.926 -4.836,0.816 -1.56,-1.11 -1.924,-3.275 -0.816,-4.835 l 1.549,-2.178 c -2.141,-1.379 -2.764,-4.23 -1.391,-6.377 0.34,-0.533 0.773,-0.972 1.262,-1.31 -1.625,-2.241 -1.814,-5.335 -0.232,-7.809 0.996,-1.555 2.509,-2.572 4.169,-2.985 -26.243,-21.013 -32.962,-58.866 -14.465,-87.846 m 73.559,8.404 c 0.984,0.672 1.978,1.33 2.986,1.971 v -0.885 c -0.893,-0.601 -1.892,-0.957 -2.986,-1.086 M 205.81,402.847 c 1.297,0.226 2.477,0.71 3.524,1.481 v -2.033 c -1.136,-0.765 -2.438,-1.147 -3.9,-1.147 -0.13,0 -0.254,0.027 -0.381,0.034 0.247,0.558 0.5,1.112 0.757,1.665 m 39.765,2.185 c 1.574,-2.896 2.362,-7.764 2.362,-14.605 0,-12.479 -3.169,-18.72 -9.509,-18.72 -7.081,0 -10.62,6.273 -10.62,18.819 0,6.6 0.775,11.392 2.326,14.375 1.553,2.984 4.054,4.475 7.509,4.475 3.715,0 6.359,-1.448 7.932,-4.344 m 6.062,12.558 v 34.248 c 0.543,0.298 1.091,0.588 1.638,0.876 v -35.386 l 4.264,-4.951 h -15.606 l 0.606,-0.742 c -1.502,0.518 -3.087,0.791 -4.766,0.791 -4.961,0 -8.939,-1.94 -11.934,-5.82 -2.995,-3.88 -4.49,-9.032 -4.49,-15.458 0,-6.666 1.546,-12.02 4.638,-16.064 3.094,-4.044 7.184,-6.065 12.279,-6.065 5.004,0 8.961,1.869 11.867,5.606 2.906,3.738 4.36,8.83 4.36,15.278 0,7.823 -1.967,13.747 -5.901,17.769 -1.717,1.779 -3.614,3.04 -5.678,3.82 h 16.525 l -5.277,6.098 v 35.592 c 14.633,7.525 31.217,11.776 48.774,11.776 17.914,0 34.809,-4.43 49.66,-12.244 V 415.24 l 4.261,-4.95 h -15.605 l 0.722,-0.885 h 16.786 l -5.279,6.098 v 36.743 c 33.587,-18.074 56.471,-53.566 56.471,-94.305 0,-18.598 -4.772,-36.102 -13.151,-51.356 0.002,0.061 0.013,0.115 0.013,0.177 0,0.786 -0.261,1.512 -0.787,2.18 -0.523,0.665 -1.126,1.043 -1.802,1.131 0.087,-0.088 0.152,-0.154 0.195,-0.197 0.832,-0.897 1.329,-1.486 1.493,-1.772 0.163,-0.282 0.246,-0.709 0.246,-1.277 0,-0.831 -0.258,-1.519 -0.77,-2.066 -0.514,-0.546 -1.154,-0.82 -1.918,-0.82 -0.592,0 -1.312,0.208 -2.164,0.623 v -0.393 c 0.896,-0.524 1.749,-0.787 2.557,-0.787 0.479,0 0.908,0.12 1.3,0.334 -1.166,-1.977 -2.391,-3.914 -3.678,-5.808 l -2.965,3.508 v 5.409 h -0.886 v -5.705 l 3.356,-3.924 c -0.244,-0.353 -0.485,-0.709 -0.734,-1.058 h -13.769 l 0.754,-0.886 h 12.373 c -6.146,-8.476 -13.504,-16.018 -21.815,-22.371 1.151,2.325 1.744,4.976 1.744,7.975 0,2.623 -0.553,5.049 -1.655,7.279 -1.105,2.229 -2.629,3.967 -4.574,5.213 v -0.229 c 3.475,-3.279 5.212,-7.323 5.212,-12.131 0,-3.795 -0.912,-6.988 -2.719,-9.594 -2.999,-2.184 -6.115,-4.221 -9.337,-6.09 -1.56,-0.356 -3.239,-0.544 -5.057,-0.544 -3.191,0 -6.426,0.7 -9.704,2.098 v -0.295 c 3.037,-1.858 6.315,-2.787 9.835,-2.787 0.846,0 1.656,0.053 2.451,0.132 -9.001,-4.907 -18.782,-8.557 -29.103,-10.718 0.392,0.318 0.78,0.658 1.162,1.02 3.54,3.366 5.31,7.648 5.31,12.851 0,2.055 -0.388,4.152 -1.164,6.294 -0.775,2.142 -1.667,3.563 -2.672,4.263 l 0.197,-0.361 c 1.836,-3.497 2.753,-6.961 2.753,-10.393 0,-4.807 -1.682,-8.807 -5.048,-11.999 -0.878,-0.833 -1.792,-1.524 -2.735,-2.107 -3.606,-0.676 -7.276,-1.173 -10.999,-1.475 -1.617,0.454 -3.31,1.173 -5.085,2.173 v -0.196 l 0.295,-0.231 c 0.952,-0.764 1.935,-1.386 2.949,-1.878 -2.29,-0.146 -4.596,-0.229 -6.92,-0.229 -8.184,0 -16.154,0.927 -23.813,2.674 h 6.491 l -0.065,0.458 c -0.195,2.12 -0.295,3.957 -0.295,5.507 0,6.908 1.377,12.852 4.131,17.835 l 3.246,5.835 c 2.513,4.569 3.977,8.962 4.393,13.18 h -0.754 l -0.065,-0.393 c -0.613,-4.196 -2.088,-8.382 -4.427,-12.556 l -3.048,-5.475 c -2.974,-5.333 -4.459,-11.693 -4.459,-19.082 0,-1.508 0.077,-2.981 0.229,-4.425 h -8.957 c -45.782,12.132 -79.625,53.915 -79.625,103.459 0,15.069 3.137,29.418 8.783,42.436 0.258,-0.031 0.523,-0.049 0.798,-0.049 1.29,0 2.567,0.328 3.835,0.984 v -28.851 l -4.164,-3.409 h 14.13 l -3.999,3.409 v 37.997 H 211.4 c -0.701,-1.704 -1.75,-3.114 -3.148,-4.229 -0.398,-0.318 -0.801,-0.578 -1.204,-0.805 7.976,16.041 19.856,29.81 34.395,40.053 0.13,-0.007 0.257,-0.02 0.391,-0.02 1.289,0 2.568,0.327 3.836,0.983 v -28.85 l -4.164,-3.41 h 14.131 z m 51.299,-173.506 c -62.782,0 -113.857,51.075 -113.857,113.857 0,38.058 18.774,71.812 47.544,92.496 0,-0.741 0.364,-1.364 1.096,-1.865 0.377,-0.259 0.804,-0.449 1.277,-0.574 -0.277,-0.197 -0.547,-0.4 -0.82,-0.599 -0.248,0.161 -0.496,0.32 -0.735,0.517 h -0.263 c 0.195,-0.291 0.407,-0.546 0.631,-0.785 -14.749,-10.8 -26.734,-25.16 -34.669,-41.808 0.042,0.148 0.064,0.298 0.064,0.447 0,0.874 -0.459,1.289 -1.378,1.246 -1.028,-0.044 -1.541,-0.612 -1.541,-1.704 0,-0.744 0.366,-1.367 1.098,-1.869 0.221,-0.151 0.459,-0.271 0.71,-0.377 -0.11,-0.246 -0.217,-0.496 -0.325,-0.744 -0.223,0.148 -0.447,0.288 -0.663,0.465 h -0.262 c 0.224,-0.337 0.472,-0.63 0.736,-0.896 -5.867,-13.477 -9.129,-28.339 -9.129,-43.95 0,-60.922 49.564,-110.485 110.486,-110.485 60.921,0 110.484,49.563 110.484,110.485 0,60.922 -49.563,110.485 -110.484,110.485 -18.645,0 -36.223,-4.649 -51.645,-12.839 h -3.556 c -0.493,-1.202 -1.171,-2.249 -2.011,-3.158 -1.343,-0.816 -2.664,-1.665 -3.97,-2.536 -0.474,-0.123 -0.949,-0.207 -1.428,-0.207 -0.568,0 -0.863,0.175 -0.885,0.525 0,0.043 0.011,0.119 0.033,0.229 0.044,0.152 0.065,0.306 0.065,0.459 0,0.592 -0.227,0.956 -0.649,1.127 18.259,12.47 40.315,19.772 64.046,19.772 62.78,0 113.856,-51.077 113.856,-113.857 0,-62.782 -51.076,-113.857 -113.856,-113.857 m 5.273,250.72 -2.175,20.248 h 7.894 c 4.049,0 7.329,3.28 7.329,7.328 0,4.047 -3.28,7.328 -7.329,7.328 h -21.986 c -4.047,0 -7.328,-3.281 -7.328,-7.328 0,-4.048 3.281,-7.328 7.328,-7.328 h 7.894 l -2.174,-20.248 C 224.568,492.022 165.96,431.702 165.96,357.941 c 0,-47.091 23.89,-88.706 60.183,-113.368 -2.624,0.151 -5.223,-1.198 -6.534,-3.673 -1.374,-2.593 -0.932,-5.661 0.872,-7.762 -0.46,-0.378 -0.856,-0.85 -1.151,-1.409 -1.076,-2.031 -0.476,-4.49 1.298,-5.835 l -6.824,-15.174 c -1.984,-0.472 -3.465,-2.245 -3.465,-4.373 0,-2.489 2.017,-4.505 4.505,-4.505 2.489,0 4.506,2.016 4.506,4.505 0,0.475 -0.095,0.922 -0.23,1.351 l 9.762,14.062 c 1.879,-0.273 3.808,0.622 4.747,2.393 0.296,0.56 0.465,1.152 0.519,1.745 2.75,-0.312 5.538,1.046 6.913,3.64 1.049,1.983 1.035,4.244 0.167,6.139 18.553,-9.404 39.522,-14.711 61.708,-14.711 21.636,0 42.113,5.051 60.325,14.023 -0.583,-1.739 -0.486,-3.702 0.44,-5.451 1.374,-2.594 4.161,-3.952 6.912,-3.64 0.054,-0.593 0.222,-1.185 0.519,-1.745 1.067,-2.013 3.41,-2.904 5.508,-2.223 l 9.361,-13.483 c -0.136,-0.429 -0.229,-0.878 -0.229,-1.352 0,-2.488 2.017,-4.505 4.504,-4.505 2.489,0 4.505,2.017 4.505,4.505 0,2.129 -1.48,3.901 -3.465,4.373 l -6.687,14.871 c 1.374,1.398 1.769,3.566 0.803,5.39 -0.296,0.559 -0.692,1.031 -1.152,1.409 1.804,2.101 2.246,5.169 0.871,7.762 -1.129,2.133 -3.214,3.432 -5.449,3.655 36.308,24.66 60.208,66.284 60.208,113.386 0,73.761 -58.607,134.081 -131.701,136.863"
           style="fill:#000000;fill-opacity:1;fill-rule:nonzero;stroke:none"
           id="path1478"
           inkscape:connector-curvature="0" /></g></g></g></svg>